# xmcd
#
# Track frame offsets:
#	150
#	15140
#	26662
#	42970
#	59905
#	71792
#	85982
#	100937
#	112880
#	128390
#
# Disc length: 1909
#
# Revision: 1
# Processed by: cddbd v1.5.1PL0 Copyright (c) Steve Scherf et al.
# Submitted via: ExactAudioCopy v0.90b4
# Normalized: r0:DSETVAR1
#
DISCID=7b07730a
DTITLE=Various Artist - Country Blues
DYEAR=1997
DGENRE=Country
TTITLE0=Patty Loveless - Blue Side Of Town
TTITLE1=Merle Haggard - Workin' Man Blues
TTITLE2=Dolly Parton - Tennesse Homesick Blues
TTITLE3=George Jones - Bartender's Blues
TTITLE4=The Kendells - I'm Already Blue
TTITLE5=Ronnie Milsap - Too Late To Worry, Too Blue To Cry
TTITLE6=Emmylou Harris - Blue Kentucky Girl
TTITLE7=Lacy J. Dalton - Hillbilly Girl With The Blues
TTITLE8=Charley Pride - Have I Got Some Blues For You
TTITLE9=John Conlee - Friday Night Blues
EXTD=
EXTT0=
EXTT1=
EXTT2=
EXTT3=
EXTT4=
EXTT5=
EXTT6=
EXTT7=
EXTT8=
EXTT9=
PLAYORDER=
